<?xml version="1.0" encoding="UTF-8" standalone="no"?>
<svg width="20px" height="20px" viewBox="0 0 20 20" version="1.1" xmlns="http://www.w3.org/2000/svg" xmlns:xlink="http://www.w3.org/1999/xlink">
    <!-- Generator: Sketch 40.1 (33804) - http://www.bohemiancoding.com/sketch -->
    <title>instagram</title>
    <desc>Created with Sketch.</desc>
    <defs></defs>
    <g stroke="none" stroke-width="1" fill="none" fill-rule="evenodd">
        <g transform="translate(-902.000000, -2087.000000)" fill="#000000">
            <path d="M907.869652,2087.12273 C906.241769,2087.19618 904.830805,2087.5942 903.691486,2088.72871 C902.548187,2089.86918 902.155147,2091.28558 902.081514,2092.89653 C902.035742,2093.90201 901.768077,2101.49818 902.544207,2103.49028 C903.067597,2104.83422 904.098457,2105.86749 905.454694,2106.39256 C906.087538,2106.63872 906.809936,2106.80547 907.869652,2106.85411 C916.730467,2107.25511 920.015089,2107.03674 921.400182,2103.49028 C921.645956,2102.859 921.815113,2102.1374 921.86188,2101.08031 C922.26686,2092.19677 921.796207,2090.27117 920.251908,2088.72871 C919.027016,2087.50685 917.5862,2086.67508 907.869652,2087.12273 M907.951245,2105.06748 C906.981083,2105.0238 906.454707,2104.86201 906.103459,2104.72603 C905.219865,2104.3826 904.556174,2103.72155 904.214876,2102.84312 C903.623823,2101.32944 903.819846,2094.14023 903.872583,2092.97693 C903.924325,2091.83745 904.155174,2090.79624 904.959165,2089.99226 C905.954203,2088.99968 907.239792,2088.51332 915.993144,2088.90837 C917.135448,2088.95998 918.179243,2089.19026 918.985224,2089.99226 C919.980262,2090.98483 920.473801,2092.28014 920.071806,2100.99991 C920.028024,2101.96767 919.865833,2102.49274 919.729513,2102.84312 C918.829003,2105.15085 916.757333,2105.47145 907.951245,2105.06748 M916.089663,2091.68956 C916.089663,2092.34665 916.623998,2092.88065 917.283709,2092.88065 C917.943419,2092.88065 918.47875,2092.34665 918.47875,2091.68956 C918.47875,2091.03248 917.943419,2090.49847 917.283709,2090.49847 C916.623998,2090.49847 916.089663,2091.03248 916.089663,2091.68956 M906.862673,2096.98792 C906.862673,2099.80286 909.150266,2102.08479 911.972194,2102.08479 C914.794123,2102.08479 917.081716,2099.80286 917.081716,2096.98792 C917.081716,2094.17298 914.794123,2091.89205 911.972194,2091.89205 C909.150266,2091.89205 906.862673,2094.17298 906.862673,2096.98792 M908.655732,2096.98792 C908.655732,2095.16159 910.140329,2093.67967 911.972194,2093.67967 C913.80406,2093.67967 915.288657,2095.16159 915.288657,2096.98792 C915.288657,2098.81525 913.80406,2100.29716 911.972194,2100.29716 C910.140329,2100.29716 908.655732,2098.81525 908.655732,2096.98792"></path>
        </g>
    </g>
</svg>