<?xml version="1.0" encoding="UTF-8" standalone="no"?>
<svg width="20px" height="20px" viewBox="0 0 20 20" version="1.1" xmlns="http://www.w3.org/2000/svg" xmlns:xlink="http://www.w3.org/1999/xlink">
    <!-- Generator: Sketch 40.1 (33804) - http://www.bohemiancoding.com/sketch -->
    <title>pinterest</title>
    <desc>Created with Sketch.</desc>
    <defs></defs>
    <g stroke="none" stroke-width="1" fill="none" fill-rule="evenodd">
        <g transform="translate(-832.000000, -2087.000000)" fill="#000000">
            <path d="M841.876,2087 C836.399,2087 832,2091.43481 832,2096.95866 C832,2101.05869 834.407,2104.48916 837.893,2106.07936 C837.893,2104.21186 837.88,2104.45286 839.303,2098.38046 C838.521,2096.80236 839.129,2094.19673 840.88,2094.19673 C843.31,2094.19673 841.659,2097.79964 841.378,2099.2174 C841.129,2100.30544 841.959,2101.14238 842.955,2101.14238 C844.864,2101.14238 846.108,2098.71524 846.108,2095.87063 C846.108,2093.69456 844.615,2092.10437 842.042,2092.10437 C837.467,2092.10437 836.307,2097.19966 837.893,2098.79893 C838.292,2099.40294 837.893,2099.43118 837.893,2100.22174 C837.616,2101.05768 835.403,2099.84259 835.403,2096.70757 C835.403,2093.86195 837.727,2090.51518 842.457,2090.51518 C846.191,2090.51518 848.681,2093.27609 848.681,2096.2054 C848.681,2100.13805 846.523,2102.98366 843.37,2102.98366 C842.291,2102.98366 841.295,2102.3978 840.963,2101.72824 C840.36,2104.07371 840.238,2105.26258 839.303,2106.58153 C840.216,2106.83261 841.129,2107 842.125,2107 C847.602,2107 852,2102.56519 852,2097.04235 C851.752,2091.43481 847.353,2087 841.876,2087"></path>
        </g>
    </g>
</svg>