<?xml version="1.0" encoding="UTF-8" standalone="no"?>
<svg width="20px" height="16px" viewBox="0 0 20 16" version="1.1" xmlns="http://www.w3.org/2000/svg" xmlns:xlink="http://www.w3.org/1999/xlink">
    <!-- Generator: Sketch 40.1 (33804) - http://www.bohemiancoding.com/sketch -->
    <title>twitter [#154]</title>
    <desc>Created with Sketch.</desc>
    <defs></defs>
    <g stroke="none" stroke-width="1" fill="none" fill-rule="evenodd">
        <g transform="translate(-762.000000, -2087.000000)" fill="#000000">
            <path d="M768.29,2103 C775.837,2103 779.965,2096.84365 779.965,2091.50546 C779.965,2091.33021 779.965,2091.15595 779.953,2090.98267 C780.756,2090.41163 781.449,2089.70276 782,2088.8915 C781.252,2089.21837 780.457,2089.433 779.644,2089.52751 C780.5,2089.02244 781.141,2088.2289 781.448,2087.2926 C780.642,2087.76321 779.761,2088.095 778.842,2088.27321 C777.288,2086.64674 774.689,2086.56798 773.036,2088.09796 C771.971,2089.08447 771.518,2090.55538 771.849,2091.95835 C768.55,2091.79492 765.476,2090.261 763.392,2087.73762 C762.303,2089.58363 762.86,2091.94457 764.663,2093.12996 C764.01,2093.11125 763.371,2092.93797 762.8,2092.62489 L762.8,2092.67608 C762.801,2094.5989 764.178,2096.2549 766.092,2096.63591 C765.488,2096.79836 764.854,2096.82199 764.24,2096.70483 C764.777,2098.35099 766.318,2099.47829 768.073,2099.51078 C766.62,2100.63513 764.825,2101.24554 762.977,2101.24358 C762.651,2101.24259 762.325,2101.22388 762,2101.18549 C763.877,2102.37088 766.06,2103 768.29,2102.99705"></path>
        </g>
    </g>
</svg>