<?xml version="1.0" encoding="UTF-8" standalone="no" ?>
<!DOCTYPE svg PUBLIC "-//W3C//DTD SVG 1.1//EN" "http://www.w3.org/Graphics/SVG/1.1/DTD/svg11.dtd">
<svg xmlns="http://www.w3.org/2000/svg" xmlns:xlink="http://www.w3.org/1999/xlink" version="1.1" width="350" height="350" viewBox="0 0 350 350" xml:space="preserve">
<desc>Created with Fabric.js 1.7.22</desc>
<defs>
</defs>
<g id="icon" style="stroke: none; stroke-width: 1; stroke-dasharray: none; stroke-linecap: butt; stroke-linejoin: miter; stroke-miterlimit: 10; fill: none; fill-rule: nonzero; opacity: 1;" transform="translate(-1.9444444444444287 -1.9444444444444287) scale(3.89 3.89)" >
	<polygon points="40,52.5 52.99,45 40,37.5 " style="stroke: none; stroke-width: 1; stroke-dasharray: none; stroke-linecap: butt; stroke-linejoin: miter; stroke-miterlimit: 10; fill: rgb(0,0,0); fill-rule: nonzero; opacity: 1;" transform="  matrix(1 0 0 1 0 0) "/>
	<path d="M 45 0 C 20.147 0 0 20.147 0 45 c 0 24.853 20.147 45 45 45 c 24.853 0 45 -20.147 45 -45 C 90 20.147 69.853 0 45 0 z M 68.955 57.035 c -0.575 2.151 -2.269 3.845 -4.421 4.42 C 60.635 62.5 45 62.5 45 62.5 s -15.635 0 -19.535 -1.045 c -2.151 -0.575 -3.846 -2.269 -4.421 -4.42 C 20 53.135 20 45 20 45 s 0 -8.135 1.045 -12.035 c 0.575 -2.151 2.269 -3.846 4.421 -4.421 C 29.365 27.5 45 27.5 45 27.5 s 15.635 0 19.535 1.045 c 2.151 0.575 3.846 2.269 4.421 4.421 C 70 36.865 70 45 70 45 S 70 53.135 68.955 57.035 z" style="stroke: none; stroke-width: 1; stroke-dasharray: none; stroke-linecap: butt; stroke-linejoin: miter; stroke-miterlimit: 10; fill: rgb(0,0,0); fill-rule: nonzero; opacity: 1;" transform=" matrix(1 0 0 1 0 0) " stroke-linecap="round" />
</g>
</svg>