<svg height="512pt" viewBox="-30 0 512 512" width="512pt" xmlns="http://www.w3.org/2000/svg"><path d="m444.082031 54.492188c-66.660156-35.648438-142.070312-54.492188-218.078125-54.492188-76.007812 0-151.417968 18.84375-218.078125 54.492188l-7.925781 4.242187v173.5625c0 33.300781 5.675781 65.933594 16.871094 96.992187 10.816406 30.007813 26.519531 57.851563 46.671875 82.757813 40.371093 49.898437 96.894531 85.132813 159.152343 99.207031l3.308594.746094 3.308594-.746094c62.257812-14.074218 118.78125-49.308594 159.152344-99.207031 20.152344-24.902344 35.855468-52.75 46.671875-82.757813 11.195312-31.058593 16.871093-63.691406 16.871093-96.992187v-173.5625zm-22.074219 177.804687c0 119.355469-80.417968 221.234375-196.003906 248.925781-115.585937-27.691406-196.003906-129.566406-196.003906-248.925781v-155.480469c60.34375-30.652344 127.914062-46.816406 196.003906-46.816406s135.660156 16.164062 196.003906 46.816406zm0 0"/><path d="m69.171875 91.691406-9.171875 3.867188v136.734375c0 52.328125 17.355469 101.433593 50.1875 142.015625 28.5625 35.300781 68.175781 61.835937 111.546875 74.710937l4.269531 1.269531 4.269532-1.269531c43.371093-12.875 82.984374-39.410156 111.546874-74.710937 32.832032-40.582032 50.1875-89.6875 50.1875-142.015625v-136.734375l-9.171874-3.867188c-49.171876-20.730468-103.40625-31.691406-156.832032-31.691406-53.429687 0-107.660156 10.960938-156.832031 31.691406zm292.832031 140.605469c0 45.378906-15.042968 87.960937-43.507812 123.144531-23.84375 29.46875-56.554688 51.894532-92.492188 63.5-35.9375-11.605468-68.648437-34.03125-92.492187-63.5-28.464844-35.183594-43.511719-77.765625-43.511719-123.144531v-116.683594c43.042969-16.777343 89.84375-25.613281 136.003906-25.613281s92.960938 8.835938 136 25.613281zm0 0"/><path d="m211.003906 315.996094h30v30h-30zm0 0"/><path d="m211.003906 134.992188h30v151.003906h-30zm0 0"/></svg>