
<svg version="1.1" xmlns="http://www.w3.org/2000/svg"	fill="url(#gradient)" viewBox="0 0 512 512" width="58px"   xmlns:xlink="http://www.w3.org/1999/xlink" >
 
<defs >  
    <linearGradient id="gradient" x1="0%" y1="0%" x2="100%" y2="0">
        <stop offset="10%" stop-color="#ff0000"/>  
      <stop offset="20%" stop-color="rgb(248, 248, 28)"/>
      <stop offset="25%" stop-color="#00ff00"/> 
      <stop offset="30%" stop-color="#00ff00"/>
      <stop offset="35%" stop-color="#00ffff"/>  
      <stop offset="45%" stop-color="#00ffff"/>   
      <stop offset="50%" stop-color="#00ffff"/>  
      <stop offset="60%" stop-color="#0000ff"/>  
      <stop offset="70%" stop-color="#0000ff"/>  
      <stop offset="80%" stop-color="#ff00ff"/>  
     <stop offset="90%" stop-color="#ff00ff"/>   
     <stop offset="100%" stop-color="#ff0000"/>  
    </linearGradient>
</defs>
  <g>
    <g >
      <path d="m304.6,361.2c41.1-21.1 95.3-58 95.3-105.2 0-47.2-54.3-84.1-95.4-105.2 43.4-23.5 104.7-66.1 104.7-119.4 0-11.3-9.1-20.4-20.4-20.4-11.3,0-20.4,9.1-20.4,20.4 0,36.1-65.9,77.5-112.3,97.8-46.4-20.3-112.3-61.7-112.3-97.8 0-11.3-9.1-20.4-20.4-20.4-11.3,0-20.4,9.1-20.4,20.4 0,52.9 60.3,95.2 103.6,118.8-41.6,21.3-94.4,58.9-94.4,105.8 0,47.2 54.2,84 95.3,105.2-43.4,23.5-104.6,66.1-104.6,119.3 0,11.3 9.1,20.4 20.4,20.4 11.3,0 20.4-9.1 20.4-20.4 0-36.1 65.9-77.5 112.3-97.8 41.1,18.2 112.3,60.6 112.3,97.8 0,11.3 9.1,20.4 20.4,20.4 11.3,0 20.4-9.1 20.4-20.4 5.68434e-14-53.2-61.2-95.8-104.5-119.3zm-151.7-105.2c0-34.3 76.7-73.6 102.2-83 44.1,18 103.9,54.6 103.9,83 0,28.5-58,64.2-103.1,82.6-43.9-18-103-54.3-103-82.6z"/>
      <path d="    C187,42.7,196.1,51.8,207.4,51.8z"/>
      <path d="m304.6,460.2h-97.2c-11.3,0-20.4,9.1-20.4,20.4 0,11.3 9.1,20.4 20.4,20.4h97.2c11.3,0 20.4-9.1 20.4-20.4 0-11.3-9.1-20.4-20.4-20.4z"/>
    </g>
  </g>
</svg>
