<svg xmlns="http://www.w3.org/2000/svg" viewBox="0 0 511 512"  width="50px" height="50px">
      <path d="M304.6 361.2c41.1-21.1 95.3-58 95.3-105.2s-54.3-84.1-95.4-105.2c43.4-23.5 104.7-66.1 104.7-119.4 0-11.3-9.1-20.4-20.4-20.4-11.3 0-20.4 9.1-20.4 20.4 0 36.1-65.9 77.5-112.3 97.8-46.4-20.3-112.3-61.7-112.3-97.8 0-11.3-9.1-20.4-20.4-20.4-11.3 0-20.4 9.1-20.4 20.4 0 52.9 60.3 95.2 103.6 118.8-41.6 21.3-94.4 58.9-94.4 105.8 0 47.2 54.2 84 95.3 105.2-43.4 23.5-104.6 66.1-104.6 119.3 0 11.3 9.1 20.4 20.4 20.4 11.3 0 20.4-9.1 20.4-20.4 0-36.1 65.9-77.5 112.3-97.8 41.1 18.2 112.3 60.6 112.3 97.8 0 11.3 9.1 20.4 20.4 20.4 11.3 0 20.4-9.1 20.4-20.4 0-53.2-61.2-95.8-104.5-119.3zM152.9 256c0-34.3 76.7-73.6 102.2-83 44.1 18 103.9 54.6 103.9 83 0 28.5-58 64.2-103.1 82.6-43.9-18-103-54.3-103-82.6z"></path>
      <path d="M207.4 51.8h97.2c11.3 0 20.4-9.1 20.4-20.4 0-11.3-9.1-20.4-20.4-20.4h-97.2c-11.3 0-20.4 9.1-20.4 20.4 0 11.3 9.1 20.4 20.4 20.4zM310.7 256c0-11.3-9.1-20.4-20.4-20.4h-68.5c-11.3 0-20.4 9.1-20.4 20.4 0 11.3 9.1 20.4 20.4 20.4h68.5c11.2.1 20.4-9.1 20.4-20.4zM304.6 460.2h-97.2c-11.3 0-20.4 9.1-20.4 20.4 0 11.3 9.1 20.4 20.4 20.4h97.2c11.3 0 20.4-9.1 20.4-20.4 0-11.3-9.1-20.4-20.4-20.4z"></path>
    </svg>