<?xml version="1.0" encoding="UTF-8"?>
<svg width="25px" height="20px" viewBox="0 0 25 20" version="1.1" xmlns="http://www.w3.org/2000/svg" xmlns:xlink="http://www.w3.org/1999/xlink">
    <!-- Generator: Sketch 52.5 (67469) - http://www.bohemiancoding.com/sketch -->
    <title>Icon-Twitter</title>
    <desc>Created with Sketch.</desc>
    <g id="BandSite" stroke="none" stroke-width="1" fill="none" fill-rule="evenodd">
        <g id="Icon/Twitter" fill="#FFFFFF">
            <path d="M24.8934106,2.42838542 C24.7684921,2.28841142 24.563007,2.25056967 24.3961776,2.33439125 C24.2000512,2.43286133 23.7667016,2.5720215 23.2926619,2.69287108 C23.7732121,2.1402995 24.1748234,1.47176108 24.3351424,0.881347667 C24.3811222,0.712890667 24.3168318,0.533854167 24.1748234,0.43294275 C24.0320011,0.3312175 23.8419783,0.32999675 23.6983423,0.428059917 C23.3777043,0.646972667 21.8697291,1.28743492 20.9354842,1.47298183 C19.7741886,0.455729167 18.6230656,0 17.2286157,0 C16.1959009,0 15.2368351,0.284016917 14.1194849,0.920817083 C12.1277043,2.056071 11.8261906,4.55322267 11.9979029,6.0176595 C6.49090414,5.55867517 3.40537355,2.4898275 2.31487897,1.16048175 C2.22902289,1.05631508 2.0975938,0.997721333 1.96331647,1.0095215 C1.82863222,1.01888025 1.70656189,1.09293617 1.63657497,1.20849608 C0.909849719,2.40356442 0.709654385,3.74430342 1.0575548,5.08504233 C1.2756538,5.92569992 1.6845893,6.66625975 2.14398055,7.24446617 C1.81032172,7.06990558 1.48195255,6.84814458 1.2011908,6.62475592 C1.07627222,6.52506517 0.904559969,6.5071615 0.760923802,6.57592775 C0.616880802,6.64550783 0.525328135,6.79117842 0.525328135,6.9510905 C0.525328135,9.37622075 2.15984964,11.0306803 3.56935464,11.8481445 C3.25807555,11.7940267 2.93540305,11.7069498 2.63755147,11.6182454 C2.48048764,11.5714518 2.31040305,11.6210938 2.20338805,11.7447917 C2.09596614,11.8684896 2.07155214,12.0438639 2.14031839,12.1927897 C3.00335547,14.054362 4.74814697,15.4248047 6.67929947,15.8369955 C5.01100522,16.8786622 2.64446872,17.3986817 0.463072219,17.1512858 C0.268573552,17.1313477 0.0797714686,17.2501627 0.0195500519,17.4397787 C-0.0406713648,17.6293946 0.0419296352,17.8352865 0.216490135,17.9309082 C2.75595972,19.3233236 5.39308514,20 8.27923422,20 C8.2849308,20 8.29144122,20 8.2975448,20 C12.3628931,19.9963379 16.1458521,18.2584635 18.9489934,15.107015 C21.4909042,12.2497559 22.8145533,8.62833658 22.5215846,5.36783858 C23.2084336,4.88240567 24.2781764,3.94368492 24.9328801,2.93334967 C25.0354191,2.775472 25.0191431,2.56876625 24.8934106,2.42838542 Z" id="Path"></path>
        </g>
    </g>
</svg>